{
    "asset" : {
        "generator" : "Khronos glTF Blender I/O v1.8.19",
        "version" : "2.0"
    },
    "scene" : 0,
    "scenes" : [
        {
            "name" : "Scene",
            "nodes" : [
                2
            ]
        }
    ],
    "nodes" : [
        {
            "mesh" : 0,
            "name" : "Cylinder",
            "scale" : [
                1.8786615133285522,
                1.8786615133285522,
                1.8786615133285522
            ],
            "translation" : [
                0,
                -23.55442237854004,
                0
            ]
        },
        {
            "mesh" : 1,
            "name" : "Glass",
            "scale" : [
                1.8786615133285522,
                1.8786615133285522,
                1.8786615133285522
            ],
            "translation" : [
                0,
                -23.55442237854004,
                0
            ]
        },
        {
            "children" : [
                0,
                1
            ],
            "name" : "Sphere",
            "scale" : [
                0.5322938561439514,
                0.5322938561439514,
                0.5322938561439514
            ],
            "translation" : [
                0,
                13.69736099243164,
                0
            ]
        }
    ],
    "materials" : [
        {
            "doubleSided" : true,
            "name" : "Material",
            "pbrMetallicRoughness" : {
                "baseColorTexture" : {
                    "index" : 0
                },
                "metallicFactor" : 0.6090909242630005,
                "roughnessFactor" : 0.5
            }
        },
        {
            "alphaMode" : "BLEND",
            "name" : "Material.005",
            "pbrMetallicRoughness" : {}
        }
    ],
    "meshes" : [
        {
            "name" : "Cylinder",
            "primitives" : [
                {
                    "attributes" : {
                        "POSITION" : 0,
                        "NORMAL" : 1,
                        "TEXCOORD_0" : 2
                    },
                    "indices" : 3,
                    "material" : 0
                }
            ]
        },
        {
            "name" : "Cylinder.001",
            "primitives" : [
                {
                    "attributes" : {
                        "POSITION" : 4,
                        "NORMAL" : 5,
                        "TEXCOORD_0" : 6
                    },
                    "indices" : 7,
                    "material" : 1
                }
            ]
        }
    ],
    "textures" : [
        {
            "sampler" : 0,
            "source" : 0
        }
    ],
    "images" : [
        {
            "mimeType" : "image/png",
            "name" : "UntitledL",
            "uri" : "textures/UntitledL.png"
        }
    ],
    "accessors" : [
        {
            "bufferView" : 0,
            "componentType" : 5126,
            "count" : 512,
            "max" : [
                1.8078255653381348,
                12.416515350341797,
                1.8078255653381348
            ],
            "min" : [
                -1.8078255653381348,
                -1.0324081182479858,
                -1.8078255653381348
            ],
            "type" : "VEC3"
        },
        {
            "bufferView" : 1,
            "componentType" : 5126,
            "count" : 512,
            "type" : "VEC3"
        },
        {
            "bufferView" : 2,
            "componentType" : 5126,
            "count" : 512,
            "type" : "VEC2"
        },
        {
            "bufferView" : 3,
            "componentType" : 5123,
            "count" : 936,
            "type" : "SCALAR"
        },
        {
            "bufferView" : 4,
            "componentType" : 5126,
            "count" : 160,
            "max" : [
                3.9694721698760986,
                13.395675659179688,
                3.969472646713257
            ],
            "min" : [
                -3.969472646713257,
                11.68517780303955,
                -3.969472646713257
            ],
            "type" : "VEC3"
        },
        {
            "bufferView" : 5,
            "componentType" : 5126,
            "count" : 160,
            "type" : "VEC3"
        },
        {
            "bufferView" : 6,
            "componentType" : 5126,
            "count" : 160,
            "type" : "VEC2"
        },
        {
            "bufferView" : 7,
            "componentType" : 5123,
            "count" : 282,
            "type" : "SCALAR"
        }
    ],
    "bufferViews" : [
        {
            "buffer" : 0,
            "byteLength" : 6144,
            "byteOffset" : 0
        },
        {
            "buffer" : 0,
            "byteLength" : 6144,
            "byteOffset" : 6144
        },
        {
            "buffer" : 0,
            "byteLength" : 4096,
            "byteOffset" : 12288
        },
        {
            "buffer" : 0,
            "byteLength" : 1872,
            "byteOffset" : 16384
        },
        {
            "buffer" : 0,
            "byteLength" : 1920,
            "byteOffset" : 18256
        },
        {
            "buffer" : 0,
            "byteLength" : 1920,
            "byteOffset" : 20176
        },
        {
            "buffer" : 0,
            "byteLength" : 1280,
            "byteOffset" : 22096
        },
        {
            "buffer" : 0,
            "byteLength" : 564,
            "byteOffset" : 23376
        }
    ],
    "samplers" : [
        {
            "magFilter" : 9729,
            "minFilter" : 9987
        }
    ],
    "buffers" : [
        {
            "byteLength" : 23940,
            "uri" : "LampPost2.bin"
        }
    ]
}
